<?xml version="1.0" encoding="utf-8"?>
<!-- Generator: Adobe Illustrator 25.2.3, SVG Export Plug-In . SVG Version: 6.00 Build 0)  -->
<svg version="1.1" id="Слой_1" xmlns="http://www.w3.org/2000/svg" xmlns:xlink="http://www.w3.org/1999/xlink" x="0px" y="0px"
	 viewBox="0 0 595.28 841.89" style="enable-background:new 0 0 595.28 841.89;" xml:space="preserve">
<style type="text/css">
	.st0{fill:#2A3175;}
	.st1{fill:#FFFFFF;}
	.st2{fill:#FFEE00;}
</style>
<g>
	<path class="st0" d="M153.96-405.19c-15.67,12.3-30.57,23.84-45.24,35.66c-2.9,2.34-4.56,2.22-7.37-0.05
		c-13.34-10.78-26.89-21.3-40.4-31.87c-1.18-0.92-2.13-2.31-4.53-2.47c1.55,7.88,3.04,15.56,4.58,23.23
		c2.48,12.38,5.06,24.73,7.46,37.13c0.53,2.73,1.5,4,4.52,3.72c3.4-0.31,6.86-0.07,10.29-0.07c0.62,0,1.33-0.19,1.86,0.04
		c5.24,2.21,1.32,6.66,2.28,9.97c0.43,1.49,1.24,4.24-2.39,4.18c-8.27-0.12-16.54-0.15-24.8,0.02c-2.78,0.06-2.82-1.6-3.21-3.5
		c-5.57-27.65-11.18-55.29-16.79-82.94c-1.88-9.3-3.77-18.59-5.67-27.94c1.93-0.27,2.69,1.15,3.7,1.95
		c21.15,16.75,42.3,33.49,63.32,50.4c2.63,2.11,4.19,2.3,6.93,0.09c20.52-16.54,41.2-32.88,61.83-49.28
		c1.44-1.14,2.88-2.27,5.39-4.24c-1.7,8.67-3.12,16.18-4.64,23.67c-5.84,28.86-11.78,57.71-17.5,86.6
		c-0.74,3.74-1.76,5.52-6.09,5.25c-7.3-0.45-14.66-0.2-21.99-0.08c-2.2,0.04-2.84-0.56-2.94-2.84
		c-0.48-11.36-0.57-11.35,10.85-11.35c7.52,0,7.47,0,8.94-7.32c3.55-17.72,7.15-35.44,10.72-53.16
		C153.33-401.6,153.53-402.82,153.96-405.19z"/>
	<path class="st1" d="M-70.98-230.88c-9.67,0-19.35-0.11-29.02,0.07c-2.9,0.05-3.7-0.79-3.67-3.67c0.14-15.29,0.12-30.58,0-45.87
		c-0.02-2.72,0.49-3.76,3.54-3.73c19.66,0.15,39.32,0.11,58.98,0.02c2.52-0.01,3.46,0.5,3.5,3.29c0.13,9.99,0.26,9.98-9.92,9.99
		c-12.48,0-24.97,0.06-37.45-0.04c-2.6-0.02-3.85,0.28-3.86,3.44c0,3.16,1.26,3.48,3.85,3.46c13.89-0.09,27.77,0.04,41.66-0.11
		c3.03-0.03,3.96,0.74,3.94,3.87c-0.06,9.04,0.1,9.04-8.98,9.04c-12.17,0-24.34,0.03-36.51-0.03c-2.4-0.01-3.98-0.02-3.98,3.33
		c0.01,3.4,1.44,3.7,4.17,3.68c14.35-0.09,28.71,0.06,43.06-0.11c3.21-0.04,4.25,0.72,4.2,4.08c-0.15,9.31,0.02,9.31-9.17,9.31
		C-54.75-230.88-62.87-230.88-70.98-230.88z"/>
	<path class="st1" d="M35.6-260.08c-5.19,8.33-10.37,16.66-15.58,24.97c-3.92,6.26-11.52,6.21-15.45-0.1
		c-5.09-8.17-10.17-16.34-15.24-24.49c-1.84,0.5-1.18,1.83-1.19,2.72c-0.07,7.64-0.13,15.29,0,22.92c0.04,2.39-0.55,3.15-3.08,3.23
		c-11.89,0.36-11.91,0.45-11.92-11.28c-0.01-12.79,0.1-25.58-0.07-38.36c-0.04-2.92,0.89-3.26,3.61-3.7
		c9.68-1.55,15.76,1.8,20.1,10.85c4.21,8.77,10.08,16.74,15.54,25.57c6.91-11.15,13.61-21.75,20.05-32.51
		c1.61-2.69,3.22-4.17,6.55-3.83c3.99,0.41,9.28-1.2,11.71,0.82c2.58,2.15,0.75,7.6,0.79,11.61c0.1,12.32-0.08,24.64,0.12,36.96
		c0.05,3.18-0.92,3.87-3.92,3.88c-11.11,0.03-11.11,0.13-11.12-11.11c0-6.01,0-12.02,0-18.03C36.21-259.99,35.91-260.03,35.6-260.08
		z"/>
	<path class="st1" d="M281.01-284.01c9.68-0.01,19.35,0.08,29.03-0.06c2.77-0.04,3.71,0.62,3.71,3.61c0.01,9.67,0.16,9.67-9.3,9.67
		c-12.64,0-25.28,0.05-37.92-0.05c-2.54-0.02-3.93,0.16-3.9,3.4c0.02,3.1,1.14,3.53,3.81,3.51c13.58-0.11,27.15,0.05,40.73-0.12
		c3.41-0.04,4.92,0.47,4.77,4.47c-0.33,8.44-0.07,8.45-8.65,8.45c-12.02,0-24.03,0.02-36.05-0.01c-2.53-0.01-4.64-0.44-4.64,3.57
		c0.01,4.28,2.54,3.37,4.87,3.37c13.89,0.02,27.78,0.13,41.67-0.06c3.52-0.05,4.85,0.63,4.74,4.51c-0.27,8.85-0.04,8.87-8.71,8.87
		c-17.79,0.01-35.58-0.06-53.37,0.06c-2.97,0.02-3.99-0.63-3.95-3.84c0.18-15.29,0.17-30.59,0-45.88c-0.03-3,0.89-3.58,3.68-3.54
		C261.34-283.91,271.18-284.01,281.01-284.01z"/>
	<path class="st1" d="M239.01-231.25c-0.92,0.28-1.05,0.33-1.19,0.36c-10.94,1.99-19.33-1.33-24.42-11.64
		c-2.21-4.48-5.87-5.71-10.75-5.3c-5.11,0.44-10.29,0.21-15.44,0.06c-2.55-0.07-3.7,0.62-3.5,3.39c0.22,3.11,0.05,6.24,0.05,9.36
		c0,0.78,0.33,1.81-0.05,2.3c-3.16,4.18-7.61,0.91-11.39,1.79c-1.54,0.36-3.48,0.52-3.47-2.3c0.07-16.23,0.05-32.45,0-48.68
		c-0.01-2.14,1.24-2.1,2.73-2.1c16.85,0.07,33.7-0.07,50.54,0.26c8.01,0.16,14.21,5.69,15.73,12.94c1.91,9.14-1.16,16.96-8.93,20.55
		c-3.8,1.75-3.17,2.82-0.99,5.32C231.71-240.64,235.16-236.05,239.01-231.25z M202.03-260.38c0-0.01,0-0.01,0-0.02
		c5.46,0,10.91,0.05,16.37-0.02c3.43-0.05,5.16-1.98,5.08-5.35c-0.07-3.13-1.73-4.98-4.94-4.99c-10.76-0.05-21.52,0.02-32.27-0.07
		c-2.21-0.02-2.65,0.97-2.52,2.84c0.09,1.4,0.15,2.82-0.01,4.2c-0.31,2.62,0.61,3.58,3.33,3.47
		C192.05-260.52,197.04-260.38,202.03-260.38z"/>
	<path class="st1" d="M91.46-284.01c7.63,0,15.27-0.14,22.9,0.03c13.12,0.3,20.82,9.93,18.45,22.85
		c-1.53,8.37-8.03,13.47-17.55,13.55c-10.9,0.09-21.81,0.17-32.71-0.06c-3.39-0.07-4.5,1-3.97,4.17c0.08,0.45,0.01,0.93,0.01,1.4
		c-0.01,12.28-0.01,12.22-12.33,11.24c-2.06-0.16-2.59-0.82-2.58-2.77c0.06-15.89,0.08-31.78-0.02-47.67
		c-0.02-2.42,0.94-2.8,3.03-2.78C74.95-283.96,83.2-284.01,91.46-284.01z M97.14-260.37c4.83,0,9.66-0.05,14.49,0.02
		c3.68,0.05,6.59-0.69,6.55-5.24c-0.05-4.51-2.99-5.23-6.64-5.22c-9.19,0.04-18.4,0.31-27.57-0.11c-4.66-0.22-6.17,1.26-5.38,5.64
		c0.11,0.6,0.1,1.26,0,1.86c-0.38,2.51,0.74,3.17,3.13,3.1C86.86-260.48,92-260.38,97.14-260.37z"/>
	<path class="st2" d="M138.33-441.3c-4.78,5.41-10.4,8.72-15.17,13.02c-4.99,4.51-10.58,8.36-15.79,12.65
		c-1.32,1.09-2.35,2.09-3.96,0.76c-10.18-8.39-20.34-16.79-30.5-25.19c-0.23-0.19-0.34-0.51-0.81-1.24
		C94.06-441.3,115.72-441.3,138.33-441.3z"/>
	<path class="st1" d="M156.61-257.3c0,7.33,0,14.66,0,21.99c0,0.94,0.4,2.24-0.07,2.75c-3.47,3.76-8,0.79-11.98,1.64
		c-1.72,0.37-2.91-0.14-2.9-2.43c0.08-16.06,0.08-32.12,0.01-48.18c-0.01-2.21,1-2.42,2.83-2.52c12.12-0.69,12.12-0.73,12.12,11.32
		C156.61-267.59,156.61-262.45,156.61-257.3z"/>
	<path class="st1" d="M250.31-208.05c-3.14,4.04-5.66,6.93-7.77,10.09c-2.05,3.07-3.53,3.77-5.84,0.17
		c-2.14-3.34-4.82-6.34-8.12-10.59c0,5.41-0.05,9.53,0.02,13.65c0.03,1.72,0.04,2.93-2.35,2.91c-2.37-0.02-2.36-1.24-2.35-2.94
		c0.05-5.77-0.04-11.53,0.07-17.3c0.02-1.18-1.04-3.06,1.08-3.49c1.82-0.37,3.58-0.33,4.98,1.54c3.06,4.11,6.34,8.05,9.92,12.54
		c3.23-4.17,6.33-7.95,9.17-11.92c1.37-1.9,2.98-2.78,5.13-2.2c2.47,0.67,1.18,2.86,1.22,4.3c0.16,5.61-0.03,11.22,0.12,16.83
		c0.05,2.11-0.69,2.63-2.66,2.62c-1.93-0.02-2.78-0.43-2.69-2.6C250.44-198.56,250.31-202.69,250.31-208.05z"/>
	<path class="st1" d="M132.43-204.13c0-3.71-1.43-8.61,0.39-10.81c1.94-2.34,7.02-0.59,10.72-0.69c2.79-0.08,5.62-0.13,8.37,0.28
		c6.22,0.93,10.03,5.58,9.87,11.6c-0.17,6.42-4.12,11.07-10.51,11.56c-5.56,0.43-11.18,0.17-16.76,0.31
		c-1.84,0.05-2.44-0.68-2.39-2.46c0.1-3.26,0.03-6.52,0.03-9.79C132.25-204.13,132.34-204.13,132.43-204.13z M137.79-203.96
		c0,1.71,0.02,3.43-0.01,5.14c-0.02,1.18,0.09,2.32,1.61,2.26c4.17-0.16,8.42,0.65,12.51-0.83c3.56-1.29,4.48-4.14,4.15-7.49
		c-0.32-3.28-2.11-5.53-5.54-5.96c-1.84-0.23-3.73-0.19-5.6-0.19C137.79-211.05,137.79-211.04,137.79-203.96z"/>
	<path class="st1" d="M192.11-191.91c-3.26-0.31-8.71,1.75-10.86-0.74c-2.03-2.36-0.78-7.66-0.72-11.66
		c0.05-3.7-1.63-8.59,0.72-10.73c1.99-1.82,6.81-0.57,10.38-0.61c3.74-0.04,7.48,0.08,11.21-0.04c1.78-0.06,2.5,0.4,2.46,2.31
		c-0.03,1.79-0.57,2.44-2.43,2.4c-4.67-0.11-9.34-0.03-14.01-0.03c-1.4,0-2.75-0.23-2.79,2c-0.04,2.3,1.16,2.51,2.91,2.41
		c1.24-0.07,2.53-0.21,3.73,0.04c1.63,0.35,4.38-1.49,4.53,2.15c0.15,3.72-2.63,2.08-4.28,2.35c-1.21,0.2-2.5,0.17-3.73,0.01
		c-2.48-0.32-3.13,0.72-3.17,3.11c-0.05,2.81,1.66,2.42,3.34,2.42c4.36,0,8.72,0.06,13.08-0.03c1.9-0.04,2.82,0.4,2.82,2.56
		c0.01,2.13-1.13,2.14-2.65,2.12C199.39-191.94,196.12-191.91,192.11-191.91z"/>
	<path class="st1" d="M63.23-201.31c2.58,0.49,5.7-0.09,5.2,4.43c-0.42,3.83-2.4,5.03-5.89,4.98c-4.98-0.07-9.97-0.07-14.95,0.02
		c-3.95,0.08-5.69-1.77-5.6-5.67c0.09-4.2,0.07-8.41,0.02-12.62c-0.05-3.64,1.56-5.52,5.3-5.49c5.3,0.04,10.59-0.1,15.89,0.04
		c3.82,0.1,5.61,2.54,5.24,6.1c-0.23,2.18-1.8,1.77-3.02,2.05c-1.15,0.27-2.75,0.8-2.63-1.28c0.14-2.43-1.33-2.37-2.97-2.28
		c-0.47,0.02-0.93,0-1.4,0C46.37-211.09,46.34-211,47.6-198.8c0.2,1.91,0.86,2.34,2.56,2.28c2.49-0.09,4.98-0.02,7.48-0.02
		C62.41-196.54,62.41-196.54,63.23-201.31z"/>
	<path class="st1" d="M115.8-192.27c-3.83,0.77-6.79,0.92-8.09-3.06c-0.57-1.74-2.12-1.53-3.52-1.53c-2.96,0-5.92,0.08-8.88-0.04
		c-2.48-0.1-4.55,0.09-5.52,2.95c-1.08,3.19-3.82,1.67-6.78,2.19c4.59-8.01,8.7-15.42,13.08-22.67c1.43-2.37,5.7-1.8,7.26,0.82
		C107.48-206.64,111.51-199.63,115.8-192.27z M94.02-201.7c3.72,0,6.7,0,10.34,0c-1.76-3.26-3.29-6.08-5.09-9.4
		C97.37-207.69,95.88-205.03,94.02-201.7z"/>
	<path class="st1" d="M27.1-192.2c-3.57,0.49-6.68,1.11-8.02-2.97c-0.55-1.68-1.95-1.72-3.42-1.7c-2.96,0.04-5.93,0.17-8.88-0.04
		c-2.76-0.19-4.78,0.32-5.89,3.2c-1.09,2.84-3.6,1.6-6.44,1.69c4.44-7.76,8.52-15.17,12.89-22.4c1.52-2.51,5.8-1.71,7.52,1.21
		C18.9-206.36,22.86-199.49,27.1-192.2z M5.45-201.66c3.51,0,6.54,0,10.16,0c-1.73-3.2-3.25-6.03-4.89-9.07
		C8.43-207.98,7.07-204.95,5.45-201.66z"/>
	<path class="st1" d="M270.16-215.25c4.92-1.29,8.09,0.14,10.97,3.69c4.22,5.2,4.6,5.15,9.06-0.16c2.62-3.13,5.34-4.99,10.31-3.33
		c-2.56,2.42-4.78,4.7-7.18,6.76c-3.98,3.43-6.46,7.35-5.43,12.91c0.33,1.76,0.58,3.58-2.56,3.59c-3.1,0.01-3.34-1.46-2.99-3.67
		c0.82-5.07-0.95-8.93-4.87-12.2C274.87-209.83,272.73-212.55,270.16-215.25z"/>
	<path class="st1" d="M-48.23-215.66c3.74,0,7.47,0.06,11.21-0.02c1.69-0.04,2.52,0.32,2.48,2.29c-0.03,1.87-0.71,2.37-2.47,2.4
		c-2.77,0.06-6.44-1.28-8.08,0.55c-1.95,2.17-0.5,5.94-0.66,9.01c-0.11,2.17-0.11,4.36,0.01,6.53c0.11,1.98-0.13,3.1-2.64,3.08
		c-2.53-0.02-3.17-0.86-3.07-3.25c0.18-4.2-0.09-8.41,0.1-12.6c0.12-2.58-0.6-3.71-3.32-3.39c-1.69,0.2-3.43-0.05-5.13,0.05
		c-1.89,0.11-2.86-0.38-2.83-2.56c0.03-2.13,1.22-2.12,2.73-2.11C-56.01-215.64-52.12-215.66-48.23-215.66z"/>
	<path class="st1" d="M-77.68-203.53c0,2.94-0.13,5.9,0.04,8.83c0.14,2.24-0.61,2.9-2.85,2.88c-2.23-0.02-2.93-0.68-2.88-2.92
		c0.14-6.04,0.15-12.09-0.01-18.12c-0.06-2.32,0.75-2.83,2.92-2.87c2.29-0.04,2.94,0.72,2.82,2.91
		C-77.81-209.74-77.68-206.63-77.68-203.53z"/>
</g>
</svg>
