<svg id="Слой_1" data-name="Слой 1" xmlns="http://www.w3.org/2000/svg" viewBox="0 0 3125.27 1077.18"><defs><style>.cls-1{fill:#fff;}.cls-2{fill:#56b150;}.cls-3{fill:#009cde;}.cls-4{fill:#fefefe;}</style></defs><path class="cls-1" d="M1966.49-1464.64c-15,0-30-.23-45,.14-4.72.12-7-1.64-9.18-5.5-20.09-35.23-41-70-59.75-106a4.43,4.43,0,0,0-2.52-2.29c.31,5.61.56,11.23.92,16.85,2,31.26,1.25,62.56,1.45,93.85,0,2.57-1.07,3-3.28,3-13-.07-26-.12-39,0-2.92,0-3.62-.94-3.59-3.7.14-11,.06-22,.06-33q0-71.67-.08-143.32c0-3.79.77-5.1,4.85-5,14,.28,28,.19,42,0,3,0,4.77.71,6.32,3.47,20.67,37,43,73.09,61.3,111.38.23.49.26,1.37.91,1.33,0-6.44.18-12.85,0-19.24-1-31.11-1.16-62.24-1.17-93.37,0-3.58,1.72-3.56,4.3-3.54,13.82.08,27.65,0,41.48.06Zm-116.63-115.29.23.19,0-.33Z" transform="translate(1158.79 2037.92)"/><path class="cls-2" d="M-325.69-2035.93l-31,8.92c-100.94,29-200.22,62.65-295.26,107.8-39.89,18.94-78.54,40.1-113.7,67.08-17.1,13.13-33,27.59-45.53,45.26-8.78,12.33-15.33,25.62-17.42,40.86-2,14.75,1.06,28.43,7.91,41.41,11.34,21.52,28.29,38,47.45,52.47,24.39,18.44,51,33.22,78.3,46.78,46.53,23.12,94.69,42.72,141.68,64.86,13.51,6.37,27,12.77,40.61,18.94,53.7,24.35,107.5,48.52,161.17,73,89.45,40.71,179.15,80.91,268,122.85C-45.6-1327.91-8.89-1308,24.16-1282,45-1265.64,63.9-1247.45,79-1225.66c9.86,14.23,18.89,29,25.28,45.25a268.93,268.93,0,0,1,18.37,116.06c-1.33,22.27-3.56,44.4-9.41,66a56.15,56.15,0,0,1-6.66,15.5c-6.27,9.88-15,13.65-26.49,11.4-9.56-1.87-18.4-5.73-27-10.09-68.17-34.66-138.72-64-208.69-94.75-38.11-16.72-76.06-33.83-114.1-50.71q-87.53-38.85-175.08-77.62Q-671.9-1305.22-899-1405.84c-53.41-23.72-105.92-49.27-154.42-82.22-28.48-19.36-55.12-40.85-76.26-68.42-13.64-17.79-23.89-37.22-27.63-59.57-4.39-26.31,1.22-50.85,13.59-74.15,13.25-25,32-45.32,53-63.77,39.67-34.86,84.7-61.56,131.56-85.36,76.85-39,157.32-69.08,239.13-95.74,103.13-33.62,208-61,313.73-85,25.13-5.69,50.34-11,75.52-16.53C-329.15-2036.93-327.55-2037.47-325.69-2035.93Z" transform="translate(1158.79 2037.92)"/><path class="cls-3" d="M94.34-1577.91a42.29,42.29,0,0,1-3.44,8.25c-4.41,8-10.85,10.61-19.73,8.45-7-1.72-13.32-5.15-19.53-8.67-39.41-22.34-81.08-39.84-122.6-57.7-30-12.91-59.7-26.59-89.52-40-63.18-28.33-126.4-56.56-189.1-86-26.59-12.47-53.4-24.54-79.09-38.84-14.73-8.21-28.78-17.41-40.46-29.76-7.66-8.11-13.62-17.15-15.69-28.39a37.56,37.56,0,0,1,4.81-26.85c7.37-12.41,17.83-21.9,29.17-30.47,27.11-20.5,57.32-35.57,88.28-49.12a1224,1224,0,0,1,193.32-65.59c.79-.2,1.6-.33,3.14-.64-1.91,2.06-3.89,2.48-5.68,3.19-26.72,10.6-54.51,18.31-80.84,29.94-25.92,11.44-51.33,23.79-73.25,42.14-7.06,5.91-13.36,12.53-18,20.56-8.05,13.9-7.15,27.15,2.39,40,6.74,9.1,15.68,15.57,25.18,21.29,13.54,8.15,27.72,15.14,41.88,22.18l1.8.89.94.46c16.81,8.26,45.82,21.73,53.68,25.44,1.21.57,1.91.9,2,1a31.82,31.82,0,0,0,5.85,2.67c1.78.59,6.38,1.89,12.68,4.23a176.55,176.55,0,0,1,17,7.36c14.57,7.28,15.45,7.23,19.14,9.44.79.48,5.45,2.4,12,5,13.88,5.64,36.16,14.53,47.11,19.48l1.48.67c11.15,5.16,22.86,9.11,34.09,14.09,19.92,8.84,40.34,16.62,59.63,26.81,15,7.94,30.62,14.84,45.05,24,16.39,10.34,31.59,22,42.8,38C99.3-1637.71,103.71-1608.86,94.34-1577.91Z" transform="translate(1158.79 2037.92)"/><path class="cls-1" d="M124.74-1334.06a66.06,66.06,0,0,1-5.23,12.76c-6.7,12.34-16.48,16.42-30,13.08-10.69-2.66-20.23-8-29.67-13.42C0-1356.21-63.3-1383.3-126.37-1410.94c-45.6-20-90.69-41.15-136-61.84-96-43.85-192-87.54-287.27-133-40.39-19.3-81.12-38-120.14-60.12-22.38-12.7-43.72-26.94-61.47-46-11.63-12.56-20.69-26.55-23.83-43.94a59.05,59.05,0,0,1,7.3-41.56c11.2-19.2,27.09-33.89,44.32-47.15,41.18-31.73,87.07-55.05,134.1-76,95-42.36,193.08-75.8,293.68-101.51,1.2-.31,2.43-.51,4.77-1-2.9,3.19-5.91,3.84-8.63,4.94-40.59,16.41-82.81,28.34-122.8,46.34-39.38,17.7-78,36.82-111.28,65.22-10.72,9.14-20.29,19.39-27.36,31.82-12.23,21.51-10.86,42,3.63,62,10.24,14.08,23.82,24.1,38.25,32.95,20.57,12.61,42.11,23.43,63.62,34.33l2.74,1.37,1.43.72c25.53,12.78,69.6,33.63,81.54,39.37,1.84.88,2.9,1.39,3.06,1.48a47.35,47.35,0,0,0,8.88,4.14c2.71.91,9.7,2.92,19.27,6.54a268,268,0,0,1,25.81,11.39c22.13,11.27,23.47,11.19,29.07,14.61,1.2.75,8.28,3.72,18.15,7.8,21.09,8.73,54.94,22.49,71.57,30.15l2.25,1c16.94,8,34.73,14.1,51.79,21.81,30.26,13.68,61.28,25.72,90.58,41.49,22.83,12.29,46.52,23,68.44,37.07,24.89,16,48,34,65,58.85C132.27-1426.61,139-1382,124.74-1334.06Z" transform="translate(1158.79 2037.92)"/><path class="cls-1" d="M1682.36-1304c20,6.54,25.58,21.34,26.54,39.22.69,12.78,1.53,25.56,2.66,38.31.57,6.45,1.85,12.82,7,17.66,1.91,1.8,1.09,4.5.7,6.64s-2.78,1.18-4.24,1.19c-16.48.08-33,0-49.46.13-3.28,0-4.64-1-5.43-4.15a127.5,127.5,0,0,1-3.49-26.14c-.34-8.31-.56-16.63-1.05-24.93-.95-16.13-9.46-25-25.46-25.61-12.8-.51-25.64-.06-38.46-.28-3.53-.06-3.08,2-3.08,4.13,0,24-.11,47.93.12,71.89,0,4.25-1.17,5.18-5.24,5.11-15.32-.26-30.64-.18-46,0-3,0-3.93-.67-3.93-3.83q.15-104.34,0-208.68c0-3.27.85-4.21,4.14-4.19,34.31.12,68.62,0,102.92.18,13.17.09,26.23,1.52,38.86,5.68,23.07,7.6,35.57,24.22,37.07,48.46C1718.22-1336.52,1707.87-1316.74,1682.36-1304Zm-65.83-70c-9.27,0-16.93.1-24.58,0-2.58,0-3.44.7-3.42,3.35q.18,21.23,0,42.43c0,2.94,1,3.57,3.71,3.54,14-.14,28-.08,42-.14a41,41,0,0,0,10.82-1.69c12.1-3.38,17.44-11.36,16.93-25.25-.44-11.66-6.33-18.45-18.14-21C1634.24-1374.84,1624.55-1373.48,1616.53-1373.94Z" transform="translate(1158.79 2037.92)"/><path class="cls-1" d="M543.47-1423c16.33-.19,32.22,2.2,47.28,8.66,25.52,11,43.43,29.63,52.75,55.57,12.06,33.57,12.4,67.8-.72,101-14.62,37.07-43.27,57-82.58,61.79-17.37,2.14-34.63,1.37-51.51-3.36-29.93-8.39-51.76-26.87-63.26-55.6-14.64-36.58-14.75-74,.93-110.27,14.26-33,40.89-51,76.2-56.53A143.39,143.39,0,0,1,543.47-1423Zm-52.18,113.79c.29,10.48,1,20.91,3.9,31.06,6.74,23.78,23.09,37,46.25,37.35,25.55.41,42.06-11.58,49.79-36,3.25-10.27,4.22-20.83,4.24-31.49,0-13.86-1.29-27.54-7.09-40.41-8.84-19.63-24.41-28.76-45.54-28.65s-36.44,9.85-44.84,29.61C492.76-1335.42,491.68-1322.37,491.29-1309.19Z" transform="translate(1158.79 2037.92)"/><path class="cls-1" d="M896.71-1309.07c0-34.3.11-68.59-.12-102.88,0-4.75,1.43-5.71,5.84-5.64,15,.27,30,.23,45,0,3.74-.06,4.76.93,4.73,4.7-.18,22.31,0,44.61-.18,66.92,0,3.93.64,5.43,5,5.38,22.16-.24,44.31-.19,66.47,0,3.51,0,4.43-.92,4.41-4.42-.17-22.64,0-45.28-.15-67.92,0-3.21.44-4.69,4.23-4.64,15.66.22,31.32.16,47,0,3.11,0,4.34.64,4.33,4.11q-.15,104.39,0,208.75c0,3.18-1,3.85-4,3.82-15.83-.14-31.66-.16-47.48,0-3.36,0-4.09-1-4.07-4.19.11-27.3,0-54.6.16-81.9,0-4.15-1-5.25-5.18-5.21q-32.73.32-65.47,0c-4,0-5.32.91-5.29,5.16.2,27.13,0,54.27.18,81.4,0,3.6-.68,4.81-4.58,4.75q-23-.37-46,0c-3.85,0-5-.88-5-4.87C896.79-1240.16,896.71-1274.62,896.71-1309.07Z" transform="translate(1158.79 2037.92)"/><path class="cls-1" d="M704.55-1272.86c7.66,0,15.33.12,23-.07,2.73-.06,3.89.74,4,3.5a35,35,0,0,0,.86,6.42c3.2,14.78,12.34,23.57,27.18,26.22,11.46,2,22.93,2,34-2.16,7.41-2.77,13-7.47,13.74-16.09.8-8.87-2.83-15.21-11.07-18.58-12.33-5-25.29-8.19-37.94-12.27-13.44-4.33-27-8.49-39.51-15.16-17.28-9.21-30.54-22-34.75-42-6.24-29.58,6.62-56.87,34.53-69.83,31.25-14.5,63.72-15.14,95.38-1.52,24.7,10.62,37.86,30.49,39.31,57.71.2,3.76-.75,4.86-4.57,4.8-14.32-.22-28.65-.09-43-.09-2.13,0-4,.38-4.75-2.83-4-17.75-11-24-29-26.35-9.61-1.24-19-.43-27.54,4.61-11.73,6.93-12.45,18.36-1.68,26.68,9.64,7.45,21,11.35,32.41,15,16.91,5.49,33.66,11.37,50.23,17.88,44.24,17.4,45.85,79.75,10.49,104.05-13.51,9.28-28.47,14.16-44.51,16.32-18.62,2.52-37.21,2.56-55.62-1.55-30.89-6.91-50.32-27.66-55.71-59.22-.47-2.79-.85-5.59-1.16-8.4-.78-7.14-.75-7.14,6.2-7.14Z" transform="translate(1158.79 2037.92)"/><path class="cls-1" d="M1508.46-1200.92c-18.55,0-37.19-.08-55.83.08-2.88,0-3.21-1.71-3.82-3.56-3.55-10.72-7.2-21.4-10.52-32.19-1-3.3-2.53-4.27-6-4.24q-31.47.27-63,0c-3.74,0-5.11,1.22-6.09,4.65-2.91,10.22-6.44,20.26-9.29,30.49-1,3.66-2.44,4.94-6.35,4.88-15.65-.25-31.31-.1-47-.1-5.6,0-5.61,0-3.73-5.24l67.14-187.07c2.47-6.88,5.14-13.69,7.38-20.64.94-2.94,2.43-3.7,5.35-3.68q26,.19,52,0c3.12,0,4.7.8,5.78,3.88q36.57,104.36,73.33,208.66C1508.33-1203.78,1509.08-1202.61,1508.46-1200.92Zm-107.11-158.42a9.78,9.78,0,0,0-.94,1.63q-10.74,34.39-21.49,68.81c-.91,2.89.31,3.34,2.84,3.32,13.3-.08,26.6-.06,39.9,0,2.21,0,3.42-.12,2.48-3C1416.49-1312,1409-1335.55,1401.35-1359.34Z" transform="translate(1158.79 2037.92)"/><path class="cls-1" d="M1234.68-1165.52c25.41.24,48.31,7,66.58,25.67,16.69,17,23.77,38.12,25.28,61.33,1.21,18.57-.36,36.88-7.53,54.36-2.79,6.81-6.14,13.34-10.91,18.93-2.37,2.77-1.77,4.2.5,6.43,5,4.9,9.6,10.17,14.55,15.1,2,2,1.88,3.26-.17,5.16q-8.62,8-16.87,16.32c-2,2.06-3.21,1.92-5.11-.13-5.3-5.75-10.93-11.2-16.19-17-2.1-2.31-3.62-2.74-6.66-1.33-27.94,12.9-56.55,13.42-84.71,1.72-28.45-11.83-43.85-34.87-49.26-64.51-4.63-25.34-3.51-50.54,7.86-74.17,14.16-29.42,38.61-44.24,70.67-47.3C1226.68-1165.3,1230.69-1165.33,1234.68-1165.52Zm38.54,130c7.14-22,7.89-43.14.37-64.07-6.43-17.92-20.48-27.11-39.55-27s-32.7,9.35-39.32,27.35c-5.1,13.87-5.7,28.25-4.25,42.82,1.2,12,4.13,23.25,11.86,32.8,10.76,13.28,34.82,18.24,48.85,9.87-5.26-5.63-10.37-11.3-15.71-16.75-2-2-2.51-3.3,0-5.5,5.83-5.21,11.45-10.67,17-16.2,2-2,3.14-2.15,5.11,0C1262.37-1046.72,1267.5-1041.52,1273.22-1035.49Z" transform="translate(1158.79 2037.92)"/><path class="cls-1" d="M797-1562.48c3.92,1.75,7.69,3.1,11.13,5,12.23,6.89,18.92,17.5,19.9,31.45,2.37,34.07-18.54,57.52-54.12,60.19-33.25,2.5-66.58.67-99.87,1.22-3,0-3.11-1.35-3.09-3.62.09-7.82,0-15.64,0-23.46,0-50.92.06-101.84-.1-152.76,0-4.18,1-5.17,5.18-5.14,29,.2,58,.11,86.93.13a109.45,109.45,0,0,1,25.23,2.91c27.63,6.52,36.68,25.9,34.34,50.91-1.37,14.64-9.24,24.95-22.56,31.14-.89.42-1.77.89-2.65,1.35C797.21-1563.06,797.17-1562.87,797-1562.48Zm-56.75,20.32c-7.42,0-13.59.17-19.74-.07-3.3-.13-4.69.54-4.6,4.27q.39,16.21,0,32.45c-.08,3.46,1.17,4.06,4.25,4,11.66-.17,23.31-.07,35-.1a50.73,50.73,0,0,0,15.24-2.3,15.25,15.25,0,0,0,10.29-9.43c5.31-14.12-2.28-26.51-17.22-28.28C755.27-1542.57,747.1-1541.94,740.21-1542.16Zm.11-35.15c7.19-.48,15.89,1,24.41-1.18,8.7-2.26,13.16-8.22,12.94-17.09-.21-8.51-5-14.13-13.69-15.88a36.89,36.89,0,0,0-6.92-.86c-12.47-.09-24.94,0-37.42-.11-2.7,0-3.8.55-3.74,3.53.18,9.3.22,18.62,0,27.92-.08,3.32,1.23,3.8,4.06,3.72C726.25-1577.43,732.58-1577.31,740.32-1577.31Z" transform="translate(1158.79 2037.92)"/><path class="cls-1" d="M1598.53-1556c-.18-16.14,1.71-31,7.53-45,14.31-34.34,41.07-51,77.48-53.26a109,109,0,0,1,36.59,3.6c26.26,7.35,45.09,23.63,55,48.81,11.82,30.11,12,61-.54,90.93-12.37,29.63-35.75,45.89-67.38,50.27-18.55,2.57-37,1.7-54.53-5.36-29.72-12-45.93-35-52-65.76A110.84,110.84,0,0,1,1598.53-1556Zm136.73-.87c-.32-11.36-1.24-23.09-6.24-34.1-7.76-17.12-21.36-24.82-39.82-24.42-18,.39-31,8.92-37.3,25.74a92,92,0,0,0,0,65.42c6.31,17.1,19.91,25.66,38.29,25.73,19.1.06,32.36-8.57,39.48-25.65C1734-1534.49,1734.89-1545.38,1735.26-1556.88Z" transform="translate(1158.79 2037.92)"/><path class="cls-1" d="M420.11-1558c.17,16-1.68,30.65-7.41,44.49-14.12,34-40.48,51.1-76.69,53.74a110,110,0,0,1-37.62-3.27c-24.14-6.72-42.5-21-52.66-43.86-14.9-33.43-15.07-67.7.47-100.92,12.75-27.26,35.77-41.65,65.36-45.58,18.25-2.43,36.35-1.41,53.57,5.4,30.14,11.91,46.71,35,52.86,66.23A107,107,0,0,1,420.11-1558Zm-48,1.63c-.12-12.3-1.33-24.18-6.51-35.26-7.85-16.83-21.51-24.27-39.73-23.79-17.55.47-30.44,8.6-36.75,25-8.47,22.07-8.6,44.65-.06,66.74,6.5,16.82,19.61,24.89,37.66,25.13,18.39.24,31.66-7.64,39.26-24.49C370.78-1533.64,371.91-1545,372.1-1556.35Z" transform="translate(1158.79 2037.92)"/><path class="cls-1" d="M1029.92-1165.48c13.44,0,26.59,1.82,39.08,6.91,21.76,8.88,37.41,24.27,45.76,46.14,11.31,29.59,11.58,59.8-.34,89.13-12.23,30.09-35.8,46.66-67.87,51.15-15.32,2.15-30.62,1.7-45.57-2.42-27-7.44-46.06-24.41-55.79-50.57-10.43-28.07-10.73-56.9-.35-85,12.49-33.82,38.16-51.18,73.61-54.77C1022.25-1165.3,1026.1-1165.3,1029.92-1165.48Zm44.77,97.21c-.34-11.43-1.35-22.67-6-33.24-7.4-17-20.63-25-38.93-25s-32.16,8.63-38.47,25.54a91.6,91.6,0,0,0-.08,65.41c6.34,17.12,19.84,25.55,38.34,25.62,19,.07,32.1-8.35,39.28-25.17C1073.4-1045.77,1074.35-1057,1074.69-1068.27Z" transform="translate(1158.79 2037.92)"/><path class="cls-1" d="M1189.71-1464.63c-18.5,0-36-.1-53.47.08-3,0-4-1.87-5.28-3.7-15.47-22.08-31-44.1-46.28-66.31-2.55-3.71-3.57-3-6.81-.59-10.12,7.64-13.45,17.17-12.31,29.71,1.12,12.21.15,24.61.31,36.93,0,3-.61,4-3.81,4-13-.2-26-.17-39,0-2.91,0-3.6-.93-3.59-3.69q.1-88.65,0-177.29c0-3,.63-4,3.83-4q19.23.29,38.48,0c3.35,0,4.11,1,4.09,4.19-.14,21.64-.07,43.28-.07,65.28,2.12-.47,3-2.16,4.1-3.36Q1099-1614.67,1128-1646a9.84,9.84,0,0,1,8.17-3.5c15.49.18,31,.08,46.48.08H1188c-7.11,7.44-13.49,14.14-19.89,20.8-17.17,17.91-34.3,35.86-51.62,53.62-2.53,2.59-2.53,4.11-.49,7q35.35,49.27,70.46,98.73C1187.41-1468,1188.3-1466.69,1189.71-1464.63Z" transform="translate(1158.79 2037.92)"/><path class="cls-1" d="M852.94-1557.15c0-29.14.07-58.27-.08-87.4,0-3.75.72-5,4.82-5q65.22.24,130.45,0c4,0,5,1.15,4.84,5q-.4,14.22,0,28.46c.1,3.65-.75,4.75-4.6,4.72-27.66-.18-55.31,0-83-.2-4.3,0-5.76.87-5.5,5.41.43,7.63.34,15.31,0,23-.17,3.89,1.17,4.65,4.8,4.63,25-.15,50,0,75-.17,4,0,5.49.66,5.31,5-.39,9.31-.28,18.65,0,28,.09,3.41-1.1,4.11-4.25,4.1-25.16-.12-50.32,0-75.47-.16-4,0-5.48.78-5.33,5.1.33,10,.25,20,0,30-.08,3.52,1,4.44,4.46,4.43,28.82-.14,57.64,0,86.46-.18,4.27,0,5.26,1.22,5.13,5.28-.3,9.64-.18,19.31,0,29,0,2.72-.6,3.7-3.54,3.7q-68-.14-135.94,0c-4.22,0-3.52-2.29-3.52-4.72Z" transform="translate(1158.79 2037.92)"/><path class="cls-1" d="M1296.66-1526c6.33,0,12.66.08,19,0,2.52,0,3.77.41,4.1,3.42,2,18,12,27.29,30.16,28.1,8.19.36,16.36.24,24-3.21,8.38-3.78,11.91-10.71,9.91-18.92-1.26-5.16-4.61-8.21-9.42-10.12-11.92-4.72-24.4-7.69-36.51-11.78-10.24-3.45-20.55-6.73-30.08-11.93-14.63-8-25.77-19-29-36-5.13-26.54,7.12-50.15,32.48-60.65,25.14-10.42,51.11-10.88,76.43-.84,22,8.75,34,25.84,35.78,49.72.27,3.49-.62,4.63-4.23,4.57-12-.21-24-.16-36,0-3,0-4.16-.77-4.81-4-2.57-12.93-10.47-19.62-23.79-20.9-7.7-.74-15.31-.69-22.45,2.88-12,6-13,16.74-2.21,24.56,8.47,6.14,18.29,9.39,28.1,12.57,14.55,4.7,29,9.57,43.08,15.62,20.32,8.74,31,29.89,28.06,52.82-3,23.11-17.12,37-38.08,44.3-23.35,8.14-47.41,8.8-71.32,2.72-25-6.37-39-23.52-44-48.36-2.91-14.5-2.82-14.52,11.78-14.52Z" transform="translate(1158.79 2037.92)"/><path class="cls-1" d="M325.9-1330.16c3-6.6,5.62-12.3,8.21-18,9.88-21.78,19.83-43.53,29.55-65.38,1.37-3.08,3-4.06,6.31-4q26.47.27,53,0c4.43,0,4.65.88,2.6,4.54-23.34,41.6-46.5,83.29-69.85,124.89a23.63,23.63,0,0,0-3.13,12.27c.14,23.46,0,46.93.16,70.4,0,3.81-1.06,4.68-4.75,4.63-15-.22-30-.19-45,0-3.32,0-4.13-1-4.12-4.18.13-24,0-47.93.13-71.9a20.2,20.2,0,0,0-2.75-10.34q-34.77-62.54-69.34-125.17c-2.79-5-2.77-5,3.06-5,17.15,0,34.31.13,51.46-.11,3.81-.05,5.45,1.34,6.94,4.66C300.61-1385.66,313-1358.47,325.9-1330.16Z" transform="translate(1158.79 2037.92)"/><path class="cls-1" d="M592.48-1612.38c-29.19,0-57.16-.11-85.13.12-4.45,0-5.57-1.1-5.4-5.47.36-9.3.25-18.63,0-28-.07-3.15.9-3.85,3.92-3.84q70.7.13,141.38,0c3.26,0,3.82,1.09,3.77,4q-.25,14.73,0,29.45a9.92,9.92,0,0,1-2.83,7.07q-44.69,52.44-89.22,105c-.43.51-.82,1-1.44,1.83,1.75,1.08,3.58.61,5.26.61,27.81,0,55.62.12,83.42-.08,4.08,0,4.93,1.22,4.83,5-.26,9.48-.18,19,0,28.45,0,2.79-.7,3.65-3.59,3.65q-72.69-.14-145.37,0c-2.71,0-3.82-.6-3.77-3.56q.26-15.22,0-30.45c-.05-2.9,1.57-4.6,3.16-6.48q43.29-51,86.61-102C589.33-1608.54,590.56-1610,592.48-1612.38Z" transform="translate(1158.79 2037.92)"/><path class="cls-1" d="M1130.55-1308.78c0-34.46.09-68.91-.11-103.36,0-4.48,1.2-5.53,5.55-5.45q22.21.42,44.46,0c4.29-.08,5.57.87,5.56,5.4-.18,52.93,0,105.85-.23,158.78,0,4.66,1.29,5.66,5.75,5.64,31.31-.2,62.62,0,93.93-.21,4.25,0,5.21,1.23,5.13,5.29-.28,12.64-.21,25.3,0,37.94,0,3.13-.93,3.89-4,3.89q-76.2-.14-152.4,0c-4,0-3.67-2-3.67-4.61Q1130.57-1257.1,1130.55-1308.78Z" transform="translate(1158.79 2037.92)"/><path class="cls-1" d="M790.88-1068.52c0-29,.08-57.9-.09-86.84,0-4,.74-5.37,5.07-5.35q61.18.26,122.37,0c3.63,0,4.89.75,4.77,4.63-.3,10-.24,20,0,29.94.08,3.36-1,4.11-4.21,4.1-25.31-.12-50.62,0-75.92-.17-4.18,0-5.32,1-5.17,5.19.32,9.63.25,19.3,0,28.94-.08,3.38,1,4.09,4.21,4.07,21.64-.13,43.29,0,64.93-.15,3.83,0,5.14.82,5,4.87-.32,9.64-.25,19.3,0,28.94.09,3.51-1,4.47-4.44,4.44-21.65-.15-43.29,0-64.94-.16-3.66,0-4.79.8-4.76,4.64.21,20.29,0,40.59.18,60.89,0,3.48-.88,4.49-4.41,4.43-12.65-.21-25.31-.3-38,0-4.32.12-4.7-1.59-4.68-5.12C790.93-1010.28,790.88-1039.4,790.88-1068.52Z" transform="translate(1158.79 2037.92)"/><path class="cls-1" d="M448.65-1160.61c24,0,48,.06,71.93-.07,3.36,0,4.64.67,4.54,4.33-.26,9.81-.21,19.63,0,29.44.07,3.16-1,3.89-4,3.86-14.82-.15-29.64.07-44.46-.17-3.85-.06-4.63,1.11-4.62,4.75.13,45.76,0,91.52.19,137.28,0,4.21-1.09,5.22-5.21,5.12q-18.72-.42-37.46,0c-3.81.08-4.62-1-4.61-4.68.14-45.59,0-91.19.19-136.78,0-4.48-1-5.81-5.64-5.71-14.31.32-28.64,0-42.95.2-3.46,0-4.58-.83-4.49-4.4.25-9.48.34-19,0-28.45-.17-4.29,1.52-4.81,5.16-4.79C401-1160.55,424.84-1160.61,448.65-1160.61Z" transform="translate(1158.79 2037.92)"/><path class="cls-1" d="M610.63-1160.61c24,0,48,.06,71.92-.07,3.39,0,4.62.74,4.52,4.35q-.37,14.47,0,28.95c.09,3.62-1.11,4.38-4.51,4.34-14.48-.19-29,.09-43.45-.19-4.28-.08-5.11,1.28-5.1,5.31.15,45.58,0,91.17.2,136.75,0,4.26-1.17,5.19-5.24,5.1q-18.72-.42-37.46,0c-3.83.08-4.6-1-4.59-4.7.13-45.58,0-91.17.19-136.76,0-4.47-1-5.82-5.64-5.71-14.31.33-28.64,0-43,.2-3.48,0-4.56-.88-4.47-4.42.24-9.48.34-19,0-28.45-.17-4.33,1.58-4.78,5.19-4.77C563-1160.55,586.82-1160.61,610.63-1160.61Z" transform="translate(1158.79 2037.92)"/><path class="cls-1" d="M1513.16-1649.46c24,0,47.95.09,71.93-.09,3.73,0,4.78.88,4.67,4.64-.29,9.64-.23,19.3,0,29,.07,3.1-.87,3.93-3.92,3.9-14.49-.15-29,.15-43.46-.19-4.79-.11-5.66,1.49-5.65,5.88.15,45.27,0,90.53.24,135.79,0,5.28-1.54,6.2-6.33,6.06-11.81-.35-23.65-.39-35.46,0-4.82.16-5.56-1.51-5.54-5.81.14-45.43,0-90.86.21-136.28,0-4.72-1.38-5.72-5.81-5.64-14.31.28-28.64,0-43,.17-3.17,0-4.37-.73-4.29-4.14.22-9.65.24-19.31,0-29-.09-3.57,1-4.41,4.47-4.39C1465.2-1649.39,1489.18-1649.46,1513.16-1649.46Z" transform="translate(1158.79 2037.92)"/><path class="cls-1" d="M707.33-1068.07c0-29.12.09-58.25-.09-87.37,0-4.13,1-5.36,5.23-5.27,12.65.28,25.32.2,38,0,3.26,0,4.25.9,4.24,4.2q-.13,88.13,0,176.24c0,3.3-.94,4.19-4.21,4.15-13-.19-26-.23-39,0-3.78.07-4.25-1.38-4.24-4.62C707.38-1009.82,707.33-1038.95,707.33-1068.07Z" transform="translate(1158.79 2037.92)"/><path class="cls-1" d="M1249.86-1557c0,29.28-.08,58.56.09,87.84,0,3.73-.9,4.74-4.65,4.66-12.82-.25-25.64-.21-38.46,0-3.29,0-4.12-.91-4.12-4.14q.15-88.35,0-176.69c0-3.24.84-4.19,4.13-4.15,12.81.19,25.64.24,38.45,0,3.78-.07,4.67,1,4.65,4.68C1249.78-1615.6,1249.86-1586.32,1249.86-1557Z" transform="translate(1158.79 2037.92)"/><path class="cls-1" d="M305.12-1068.07c0-29.28.06-58.57-.09-87.85,0-3.62.72-4.87,4.61-4.79,12.81.26,25.64.21,38.46,0,3.31,0,4.16,1,4.15,4.23q-.13,88.1,0,176.2c0,3.23-.81,4.21-4.11,4.16-12.82-.19-25.65-.23-38.46,0-3.74.07-4.68-.9-4.66-4.65C305.19-1009.83,305.12-1038.95,305.12-1068.07Z" transform="translate(1158.79 2037.92)"/><path class="cls-1" d="M1354.69-1068.38c0-29.12.08-58.24-.09-87.35,0-3.91,1-5.06,4.94-5,12.48.26,25,.22,37.46,0,3.5-.06,4.86.56,4.85,4.54q-.22,87.86,0,175.71c0,3.56-1,4.4-4.43,4.34q-19.23-.31-38.46,0c-3.6.07-4.34-1-4.33-4.45C1354.75-1009.81,1354.69-1039.1,1354.69-1068.38Z" transform="translate(1158.79 2037.92)"/><path class="cls-1" d="M460-1567.41c-6.66,0-13.32,0-20,0-1.44,0-3.21.37-3.13-2,.59-16.74-1.87-33.66,2.26-50.21,4.88-19.61,21.93-33.35,42.24-34.58,2.07-.13,2.73.51,2.56,2.41a8.34,8.34,0,0,0,0,1c.32,10.54.33,10.55-9.19,14.82-9,4-15,10.2-15.84,20.55-.24,3,.41,4.16,3.68,4,5.65-.28,11.32.07,17-.14,2.91-.11,3.6.93,3.57,3.68q-.19,18.47,0,36.94c0,2.89-.88,3.68-3.68,3.6C473-1567.53,466.53-1567.41,460-1567.41Z" transform="translate(1158.79 2037.92)"/><path class="cls-2" d="M-323.3-2037c-.72,0-1.21-.12-1-.61.14-.27.81-.37,1.22-.35s.52.39.77.61Z" transform="translate(1158.79 2037.92)"/><path class="cls-2" d="M96.94-1317l1-1,.57,1.18a.62.62,0,0,1-.41.41Z" transform="translate(1158.79 2037.92)"/><polygon class="cls-4" points="3008.64 458 3008.9 457.85 3008.88 458.18 3008.64 458"/></svg>